<svg width="368" height="96.33" viewBox="0 0 1395 365" fill="none" xmlns="http://www.w3.org/2000/svg">
<path d="M862.5 329.096V188.297C862.5 183.957 867.65 181.678 870.862 184.596L978.421 282.299C981.805 285.372 979.63 291 975.059 291H915.542C914.233 291 912.976 291.513 912.042 292.43L871 332.666C867.837 335.768 862.5 333.527 862.5 329.096Z" stroke="#191B1A" stroke-width="4" stroke-linecap="round"/>
<path d="M436 36.3185V108.325C436 112.723 430.733 114.979 427.55 111.944L375.041 61.8873C371.775 58.7737 373.979 53.2683 378.491 53.2683H405.441C406.792 53.2683 408.085 52.7218 409.026 51.7531L427.414 32.8336C430.543 29.6146 436 31.8295 436 36.3185Z" stroke="#191B1A" stroke-width="4" stroke-linecap="round"/>
<path d="M521 195V335" stroke="#191B1A" stroke-width="4" stroke-linecap="round"/>
<path d="M451 265H591" stroke="#191B1A" stroke-width="4" stroke-linecap="round"/>
<path d="M486.001 204.378L556.001 325.622" stroke="#191B1A" stroke-width="4" stroke-linecap="round"/>
<path d="M460.379 230L581.622 300" stroke="#191B1A" stroke-width="4" stroke-linecap="round"/>
<path d="M460.379 300L581.622 230" stroke="#191B1A" stroke-width="4" stroke-linecap="round"/>
<path d="M486.001 325.622L556.001 204.378" stroke="#191B1A" stroke-width="4" stroke-linecap="round"/>
<path d="M120 54C120 66.7025 130.332 77 143.077 77H323C335.745 77 346.077 66.7025 346.077 54C346.077 41.2975 335.745 31 323 31H143.077C130.332 31 120 41.2975 120 54Z" stroke="#191B1A" stroke-width="4" stroke-linecap="round" stroke-linejoin="round" stroke-dasharray="16 16"/>
<path d="M446 153C446 165.703 456.332 176 469.077 176H738.5C751.245 176 761.577 165.703 761.577 153C761.577 140.297 751.245 130 738.5 130H469.077C456.332 130 446 140.297 446 153Z" stroke="#191B1A" stroke-width="4" stroke-linecap="round" stroke-linejoin="round"/>
<path d="M211.5 52H62C45.4315 52 32 65.4315 32 82C32 98.5685 45.4315 112 62 112H211.5M210 112C226.569 112 240 98.5685 240 82C240 65.4315 226.569 52 210 52" stroke="#191B1A" stroke-width="4"/>
<path d="M466 60.5C466 77.897 479.124 92 495.313 92H501C502.105 92 503 92.8954 503 94V112.746C503 117.472 508.952 119.56 511.904 115.87L529.499 93.8765C530.448 92.6905 531.884 92 533.403 92H564.687C580.876 92 594 77.897 594 60.5C594 43.103 580.876 29 564.687 29H495.313C479.124 29 466 43.103 466 60.5Z" stroke="#191B1A" stroke-width="4"/>
<path d="M585.399 176C586.86 185.599 589.451 195.181 593.247 204.575C619.522 269.608 693.541 301.027 758.574 274.752C774.356 268.376 788.158 259.189 799.636 248M586.89 130C595.546 90.3821 622.987 55.5852 663.424 39.2476C728.457 12.9726 802.477 44.3921 828.752 109.425C840.676 138.939 840.717 170.304 831.127 198.217" stroke="#191B1A" stroke-width="4" stroke-linecap="round" stroke-linejoin="round" stroke-dasharray="16 16"/>
<circle cx="1059" cy="284" r="50" transform="rotate(1 1059 284)" stroke="#191B1A" stroke-width="4" stroke-linecap="round" stroke-dasharray="12 12"/>
<circle cx="953.101" cy="210.156" r="9" transform="rotate(1 953.101 210.156)" stroke="#191B1A" stroke-width="4" stroke-linecap="round"/>
<circle cx="1211.16" cy="327.156" r="9" transform="rotate(1 1211.16 327.156)" stroke="#191B1A" stroke-width="4" stroke-linecap="round"/>
<path d="M1033 286.5L1050 303L1086 266" stroke="#191B1A" stroke-width="4" stroke-linecap="round"/>
<path d="M961 206.5C961 206.5 1052.5 163.654 1126.5 203.5C1129.24 204.977 1131.91 206.566 1134.5 208.255M1209 318C1209 318 1196.3 274.07 1166.85 238" stroke="#191B1A" stroke-width="4" stroke-linecap="round"/>
<path d="M432 305V168C432 150.879 418.121 137 401 137H382C379.791 137 378 135.209 378 133V96.7778C378 94.0334 374.62 92.7297 372.777 94.7633L336.881 134.372C335.365 136.046 333.212 137 330.954 137H61C43.8792 137 30 150.879 30 168V305C30 322.121 43.8792 336 61 336H401C418.121 336 432 322.121 432 305Z" stroke="#191B1A" stroke-width="4" stroke-linecap="round" stroke-dasharray="16 16"/>
<path d="M849 63V112.182C849 129.303 862.879 143.182 880 143.182H890C892.209 143.182 894 144.973 894 147.182V170.622C894 175.68 900.651 177.54 903.275 173.216L919.164 147.032C920.614 144.642 923.207 143.182 926.003 143.182H1334C1351.12 143.182 1365 129.303 1365 112.182V63C1365 45.8792 1351.12 32 1334 32H880C862.879 32 849 45.8792 849 63Z" stroke="#191B1A" stroke-width="4" stroke-linecap="round"/>
<path d="M64 175H178.5" stroke="#191B1A" stroke-width="4" stroke-linecap="round"/>
<path d="M64 196.5H295.5M64 215H264M64 282H200M64 300H127.5" stroke="#191B1A" stroke-width="4" stroke-linecap="round"/>
<path d="M894 66.5H952.5M894 87.5H1011M894 107H995.5" stroke="#191B1A" stroke-width="4" stroke-linecap="round"/>
<circle cx="502" cy="62" r="4" fill="#191B1A"/>
<circle cx="531" cy="62" r="4" fill="#191B1A"/>
<circle cx="560" cy="62" r="4" fill="#191B1A"/>
<path d="M1365 219C1365 185.863 1338.14 159 1305 159C1279.54 159 1257.79 174.853 1249.07 197.225C1248.5 198.688 1247.52 199.963 1246.21 200.815L1222.24 216.3C1218.05 219.005 1219.97 225.5 1224.95 225.5H1242C1243.66 225.5 1245 226.843 1245 228.5V278C1245 311.137 1271.86 338 1305 338C1338.14 338 1365 311.137 1365 278V219Z" stroke="#191B1A" stroke-width="4"/>
<path d="M1307 303.5V196.5M1307 196.5L1331 220.5M1307 196.5L1282 220.5" stroke="#191B1A" stroke-width="4" stroke-linecap="round" stroke-linejoin="round"/>
<path d="M688 196C678.404 196 670.066 201.198 665.566 208.933C665.056 209.81 664.006 210.235 663.029 209.961C660.793 209.335 658.436 209 656 209C641.641 209 630 220.641 630 235C630 237.436 630.335 239.793 630.961 242.029C631.235 243.006 630.81 244.056 629.933 244.566C622.198 249.066 617 257.404 617 267C617 276.602 622.205 284.988 629.947 289.491C630.818 289.998 631.246 291.037 630.978 292.008C630.366 294.232 630 296.634 630 299C630 313.359 641.641 325 656 325C658.434 325 660.759 324.666 662.98 324.04C663.957 323.765 665.007 324.19 665.517 325.067C670.022 332.801 678.404 338 688 338C697.759 338 706.262 332.623 710.709 324.671C711.224 323.749 712.328 323.308 713.329 323.643C715.754 324.456 718.308 325 721 325C735.359 325 747 313.359 747 299C747 296.564 746.665 294.207 746.039 291.971C745.765 290.994 746.19 289.944 747.067 289.434C754.802 284.934 760 276.596 760 267C760 257.032 754.46 248.633 746.235 244.301C745.315 243.816 744.849 242.746 745.118 241.741C745.693 239.591 746 237.331 746 235C746 220.641 734.359 209 720 209C717.469 209 715.022 209.362 712.709 210.036C711.726 210.323 710.663 209.899 710.151 209.013C705.679 201.278 697.588 196 688 196Z" stroke="#191B1A" stroke-width="4"/>
<path d="M826.017 277.853C848.667 258.154 851.802 223.893 832.76 200.379C813.719 176.865 779.555 172.808 755.577 190.867C754.695 191.532 754.562 192.797 755.257 193.655L777.912 221.632C778.607 222.491 779.862 222.61 780.8 222.026C787.553 217.822 796.539 219.21 801.674 225.552C806.81 231.894 806.3 240.972 800.783 246.703C800.017 247.499 799.873 248.751 800.568 249.61L823.223 277.587C823.918 278.445 825.183 278.578 826.017 277.853Z" stroke="#191B1A" stroke-width="4"/>
<path d="M803.017 304.229L786.041 294.706C785.165 294.215 784.192 295.177 784.675 296.059L794.237 313.52C794.401 313.819 794.401 314.181 794.237 314.48L784.638 332.009C784.159 332.884 785.117 333.845 785.994 333.367L804.504 323.271C804.812 323.103 805.185 323.108 805.488 323.286L822.393 333.181C823.268 333.693 824.261 332.729 823.776 331.839L813.762 313.481C813.599 313.181 813.6 312.819 813.764 312.52L822.846 296.008C823.328 295.131 822.367 294.168 821.489 294.649L803.986 304.234C803.684 304.399 803.317 304.398 803.017 304.229Z" stroke="#191B1A" stroke-width="4" stroke-linecap="round"/>
<path d="M1215.36 177.508L1211.87 165.083C1211.6 164.139 1210.28 164.102 1209.96 165.029L1205.65 177.556C1205.56 177.837 1205.34 178.061 1205.06 178.166L1193.58 182.52C1192.71 182.852 1192.73 184.096 1193.61 184.401L1205.03 188.339C1205.33 188.441 1205.56 188.673 1205.66 188.968L1209.96 201.867C1210.27 202.805 1211.61 202.768 1211.87 201.814L1215.36 189.016C1215.45 188.694 1215.69 188.436 1216.01 188.331L1227.79 184.404C1228.69 184.105 1228.71 182.842 1227.82 182.516L1215.98 178.176C1215.68 178.065 1215.45 177.817 1215.36 177.508Z" stroke="#191B1A" stroke-width="4" stroke-linecap="round"/>
<path d="M1136.99 204.54L1143.33 179.188C1145.09 172.149 1155.08 172.107 1156.9 179.131L1163.5 204.652C1164.12 207.038 1165.95 208.924 1168.32 209.616L1193.35 216.938C1200.16 218.929 1200.03 228.614 1193.18 230.425L1168.41 236.967C1165.99 237.606 1164.1 239.488 1163.44 241.904L1156.87 266.134C1155 273.057 1145.16 273.014 1143.35 266.075L1137.05 242.013C1136.4 239.539 1134.46 237.614 1131.98 236.994L1105.79 230.447C1098.81 228.702 1098.68 218.828 1105.62 216.909L1132.07 209.589C1134.5 208.916 1136.38 206.987 1136.99 204.54Z" stroke="#191B1A" stroke-width="4" stroke-linecap="round"/>
</svg>
